<svg xmlns="http://www.w3.org/2000/svg" xmlns:xlink="http://www.w3.org/1999/xlink" width="544" height="494" viewBox="0 0 544 494" fill="none"><defs><rect id="path_0" x="0" y="0" width="544" height="494" /></defs><g opacity="1" transform="translate(0 0)  rotate(0 272 247)"><mask id="bg-mask-0" fill="white"><use xlink:href="#path_0"></use></mask><g mask="url(#bg-mask-0)" ><g opacity="1" transform="translate(0 159.52952902084226)  rotate(0 66.92024000443206 74.90813211848082)"><path id="路径 15" fill-rule="evenodd" style="fill:#C1CDF5" transform="translate(0 38.3050949262836)  rotate(0 56.08047945932522 55.05125899050171)" opacity="1" d="M105.18,110.1L105.02,108.26C107.88,101.44 110.76,94.53 111.79,87.21C112.82,79.88 111.81,71.99 107.46,66.01C100.46,56.4 87.36,54.27 75.85,51.27C46.06,43.39 20.02,25.23 2.33,0C-5.51,27.23 7.25,57.37 28.31,76.32C49.37,95.28 77.36,104.69 105.18,110.1Z " /><path id="路径 20" fill-rule="evenodd" style="fill:#C1CDF5" transform="translate(63.45335711943524 0)  rotate(0 35.19356144471445 74.90813211848082)" opacity="1" d="M25.72,0.87C11.21,12.33 2.98,29.98 0.68,48.57C-0.48,57.9 -0.16,67.35 1.63,76.58C2.32,80.15 3.2,83.68 4.25,87.16C6.2,93.51 8.66,99.69 11.61,105.65C11.8,106.06 12.01,106.46 12.21,106.86C18.83,120.02 27.59,132.25 37.21,143.57C37.21,143.58 37.21,143.58 37.22,143.59C38.48,145.07 39.76,146.54 41.04,148C41.12,148.08 41.18,148.17 41.27,148.25C41.29,148.28 41.32,148.31 41.34,148.34C41.43,148.42 41.51,148.52 41.6,148.62C41.73,148.76 41.86,148.92 41.99,149.06C42.21,149.31 42.44,149.57 42.67,149.82L43.65,148.26C43.76,148.2 43.85,148.14 43.95,148.08L70.39,110.19C70.19,109.31 69.94,108.44 69.64,107.59C66.81,99.39 60.23,92.22 54.68,85.2C50.66,80.11 47.04,74.73 43.83,69.1C35.8,54.93 30.46,39.4 28.1,23.29C28.02,22.77 27.95,22.25 27.89,21.73C26.98,15.03 26.62,8.27 26.8,1.51C26.81,1 26.83,0.5 26.84,0C26.46,0.29 26.1,0.57 25.72,0.87Z " /></g><g opacity="1" transform="translate(1.658958412901308 158.9911672541407)  rotate(0 57.313781036486624 74.81734160433729)"><path id="路径 16" fill-rule="evenodd" style="fill:#FFFFFF" transform="translate(0 38.41262429507165)  rotate(0 51.49845042332827 55.178925889896746)" opacity="1" d="M89.49,75.05C86.65,71.12 82.58,68.4 77.72,67.84C73.1,67.32 68.51,68.45 63.96,69.04C59.09,69.78 54.12,69.19 49.55,67.35C44.89,65.43 40.72,62.45 36.9,59.19C19.22,44.11 6.61,23.1 1.26,0.52C1.08,-0.26 -0.17,-0.12 0.02,0.66C3.01,13.26 8.14,25.25 15.18,36.13C21.29,45.69 28.87,54.23 37.64,61.43C41.53,64.58 45.82,67.4 50.56,69.07C55.2,70.71 59.87,70.87 64.71,70.2C69.31,69.56 74.04,68.4 78.7,69.25C84.02,70.22 87.88,74.15 90.34,78.78C95.59,88.7 94.6,101.14 101.86,110.12C102.36,110.75 103.36,110 102.86,109.37C98.69,104.21 97.27,97.63 95.82,91.31C94.51,85.62 92.96,79.85 89.49,75.05Z " /><path id="路径 17" fill-rule="evenodd" style="fill:#FFFFFF" transform="translate(8.986465168542525 91.85507223031564)  rotate(0 11.062901416562768 2.6729739936862567)" opacity="1" d="M21.16,0.15C15.46,5.24 6.9,5.43 1,0.58C0.37,0.07 -0.39,1.06 0.23,1.57C6.58,6.76 15.76,6.58 21.91,1.15C22.5,0.62 21.76,-0.38 21.16,0.15Z " /><path id="路径 18" fill-rule="evenodd" style="fill:#FFFFFF" transform="translate(54.55630430427786 84.62693329463596)  rotate(0 4.2310927428738685 12.06532057881106)" opacity="1" d="M8.37,23.61C8.99,15.19 6.41,6.84 1.14,0.24C0.63,-0.39 -0.37,0.36 0.14,0.98C5.21,7.32 7.71,15.34 7.14,23.43C7.08,24.23 8.31,24.41 8.37,23.61Z " /><path id="路径 19" fill-rule="evenodd" style="fill:#FFFFFF" transform="translate(9.522799298480104 55.24892542781794)  rotate(0 3.125545634615874 4.630685137164864)" opacity="1" d="M0.12,9.02C0.34,9.28 0.72,9.34 1,9.14C4.04,7.37 6.01,4.21 6.25,0.7C6.3,-0.1 5.06,-0.28 5.01,0.52C4.81,3.7 3.02,6.57 0.25,8.15C-0.03,8.35 -0.08,8.74 0.12,9.02Z " /><path id="路径 21" fill-rule="evenodd" style="fill:#FFFFFF" transform="translate(78.40531838205094 0)  rotate(0 18.111121845461156 74.81734160433729)" opacity="1" d="M31.09,102.46C34.76,106.44 35.48,111.89 34.65,117.07C32.87,128.16 24.59,137.49 24.97,149.03C25,149.83 26.25,149.84 26.22,149.03C26,142.4 28.84,136.29 31.48,130.37C33.86,125.04 36.1,119.51 36.22,113.58C36.31,108.74 34.71,104.11 31.16,100.74C27.79,97.54 23.44,95.69 19.45,93.42C15.12,91.07 11.5,87.61 8.97,83.4C6.4,79.05 4.87,74.17 3.78,69.26C-1.26,46.58 1.33,22.21 10.65,0.96C10.97,0.23 9.9,-0.41 9.58,0.33C4.38,12.19 1.25,24.85 0.32,37.77C-0.55,49.08 0.36,60.46 3.02,71.49C4.23,76.35 5.95,81.18 8.73,85.38C11.45,89.47 15.09,92.42 19.35,94.79C23.41,97.06 27.89,98.97 31.09,102.46Z " /><path id="路径 22" fill-rule="evenodd" style="fill:#FFFFFF" transform="translate(62.575694009096075 48.48540442908944)  rotate(0 9.090182561785092 6.77027495940338)" opacity="1" d="M17.58,12.24C9.97,12.88 3.03,7.87 1.23,0.45C1.04,-0.33 -0.17,-0.01 0.02,0.78C1.97,8.74 9.4,14.12 17.58,13.49C18.38,13.42 18.38,12.18 17.58,12.24Z " /><path id="路径 23" fill-rule="evenodd" style="fill:#FFFFFF" transform="translate(95.51884554881347 69.79764652514791)  rotate(0 4.677194714185073 11.912914771750563)" opacity="1" d="M1.04,23.62C6.61,17.27 9.57,9.05 9.34,0.6C9.32,-0.2 8.07,-0.2 8.09,0.6C8.33,8.71 5.5,16.62 0.16,22.74C-0.36,23.34 0.51,24.23 1.04,23.62Z " /><path id="路径 24" fill-rule="evenodd" style="fill:#FFFFFF" transform="translate(80.49636132929157 22.190123961481476)  rotate(0 5.030895677675908 2.3751404817168273)" opacity="1" d="M0,4.05C0.01,4.39 0.28,4.66 0.62,4.68C4.12,5.09 7.59,3.75 9.9,1.09C10.42,0.48 9.55,-0.41 9.02,0.21C6.94,2.62 3.79,3.83 0.63,3.43C0.28,3.43 0,3.7 0,4.05Z " /></g><g opacity="1" transform="translate(244.94244393672116 106.53021462450589)  rotate(0 43.92478256834525 55.24160912098697)"><path id="路径 25" fill-rule="evenodd" style="fill:#C1CDF5" transform="translate(36.64632963296961 0)  rotate(0 25.60161775186045 54.62547661436364)" opacity="1" d="M31.09,0C32.16,22.41 25.26,44.48 11.63,62.31C6.34,69.16 -0.25,76.23 0.01,84.88C0.17,90.26 3.11,95.26 6.97,99.02C10.83,102.77 15.57,105.47 20.26,108.12L20.99,109.25C34.59,93.73 46.5,75.83 50.17,55.53C53.85,35.22 47.74,12.18 31.09,0Z " /><path id="路径 30" fill-rule="evenodd" style="fill:#C1CDF5" transform="translate(0 17.170221050154197)  rotate(0 29.130211401696403 46.65649859590987)" opacity="1" d="M56.2,92.89C56.29,92.87 56.37,92.87 56.46,92.85L57.72,93.31C57.74,93.07 57.75,92.82 57.77,92.57C57.79,92.43 57.79,92.29 57.8,92.15C57.81,92.05 57.81,91.96 57.82,91.87C57.82,91.84 57.83,91.81 57.83,91.79C57.84,91.7 57.84,91.62 57.85,91.54C57.93,90.13 58.01,88.72 58.08,87.3C58.08,87.29 58.08,87.29 58.08,87.28C58.56,76.47 58.15,65.53 56.09,55C56.03,54.68 55.97,54.36 55.89,54.03C54.94,49.29 53.6,44.64 51.89,40.11C50.94,37.64 49.87,35.21 48.68,32.85C45.59,26.74 41.56,21.16 36.73,16.3C27.11,6.62 14.5,0.13 1.03,0C0.68,0 0.35,0 0,0C0.23,0.28 0.47,0.57 0.7,0.86C3.82,4.66 6.63,8.72 9.09,12.98C9.28,13.31 9.48,13.64 9.66,13.97C15.49,24.3 19.35,35.62 21.04,47.36C21.71,52.03 22.02,56.75 21.98,61.47C21.91,67.98 21.32,75.05 23.36,81.03C23.56,81.65 23.8,82.27 24.09,82.86L56.2,92.89Z " /></g><g opacity="1" transform="translate(244.63374097499965 106.13786764247301)  rotate(0 43.74067905364711 55.18523733937533)"><path id="路径 26" fill-rule="evenodd" style="fill:#FFFFFF" transform="translate(50.169514938363676 0)  rotate(0 12.881375033074178 54.55695174245807)" opacity="1" d="M3.65,74.81C5.95,72.24 9.19,70.8 12.13,69.12C15.2,67.46 17.83,65.07 19.77,62.16C21.68,59.02 23.04,55.59 23.8,52C25.63,43.94 26.19,35.64 25.44,27.41C24.65,18.01 22.25,8.82 18.35,0.23C18.11,-0.3 17.33,0.18 17.57,0.7C24.63,16.26 26.61,33.64 23.23,50.38C22.56,54 21.33,57.49 19.58,60.72C17.77,63.81 15.17,66.37 12.04,68.12C9.15,69.81 6.01,71.2 3.58,73.56C1.11,76.04 -0.18,79.46 0.02,82.96C0.16,87.27 1.85,91.28 3.63,95.14C5.61,99.43 7.73,103.85 7.64,108.68C7.62,109.27 8.53,109.25 8.55,108.67C8.72,100.26 2.6,93.54 1.2,85.48C0.54,81.72 1.02,77.74 3.65,74.81Z " /><path id="路径 27" fill-rule="evenodd" style="fill:#FFFFFF" transform="translate(74.35773470977458 35.06884340028107)  rotate(0 6.561811698759822 5.004711878801985)" opacity="1" d="M13.11,0.56C13.24,-0.01 12.36,-0.24 12.23,0.33C10.99,5.75 5.98,9.47 0.43,9.07C-0.15,9.03 -0.14,9.94 0.44,9.98C6.41,10.37 11.77,6.38 13.11,0.56Z " /><path id="路径 28" fill-rule="evenodd" style="fill:#FFFFFF" transform="translate(56.88825828705407 50.97712039457822)  rotate(0 3.5096317783988367 8.636954509927323)" opacity="1" d="M0.91,0.43C0.92,-0.15 0.01,-0.14 0,0.45C-0.08,6.6 2.15,12.56 6.26,17.13C6.66,17.57 7.29,16.91 6.9,16.48C2.95,12.07 0.82,6.34 0.91,0.43Z " /><path id="路径 29" fill-rule="evenodd" style="fill:#FFFFFF" transform="translate(66.85536988310517 16.17320907361676)  rotate(0 3.679584759869966 1.6941654573292149)" opacity="1" d="M0.75,0.15C0.37,-0.29 -0.26,0.36 0.12,0.8C1.83,2.71 4.37,3.66 6.91,3.32C7.16,3.31 7.36,3.11 7.36,2.86C7.35,2.61 7.15,2.41 6.9,2.41L6.9,2.41C4.6,2.74 2.29,1.89 0.75,0.15Z " /><path id="路径 31" fill-rule="evenodd" style="fill:#FFFFFF" transform="translate(0 17.095088378272976)  rotate(0 29.07526442928447 46.63769315023884)" opacity="1" d="M38,47.61C38.42,51.17 37.88,54.78 36.43,58.06C35.15,61.14 33.47,64.15 32.96,67.49C32.48,70.96 33.5,74.47 35.77,77.14C38.48,80.5 42.24,82.69 45.99,84.69C50.15,86.93 54.51,89.18 57.34,93.1C57.69,93.57 58.4,93.01 58.06,92.54C53.13,85.72 44.2,84.04 38.23,78.45C35.44,75.84 33.43,72.37 33.76,68.45C34.05,65.02 35.78,61.92 37.1,58.8C38.56,55.62 39.22,52.14 39.02,48.65C38.65,44.99 37.67,41.43 36.11,38.11C32.73,30.57 28.17,23.61 22.62,17.49C16.33,10.46 8.87,4.57 0.59,0.06C0.08,-0.22 -0.26,0.62 0.25,0.9C15.26,9.07 27.3,21.76 34.68,37.16C36.33,40.45 37.45,43.97 38,47.61Z " /><path id="路径 32" fill-rule="evenodd" style="fill:#FFFFFF" transform="translate(31.849001990793198 33.737687921065614)  rotate(0 3.1221661706262798 7.747939005640497)" opacity="1" d="M5.19,0.27C4.95,-0.27 4.11,0.08 4.35,0.61C6.62,5.69 4.86,11.67 0.19,14.7C-0.3,15.02 0.26,15.73 0.75,15.42C5.74,12.14 7.62,5.72 5.19,0.27Z " /><path id="路径 33" fill-rule="evenodd" style="fill:#FFFFFF" transform="translate(22.04169857613377 64.2840297565122)  rotate(0 7.813802604115529 5.1502570972991775)" opacity="1" d="M0.81,0.18C0.46,-0.29 -0.25,0.27 0.09,0.74C3.73,5.7 9.1,9.11 15.14,10.29C15.71,10.4 15.82,9.5 15.25,9.39C9.45,8.24 4.29,4.96 0.81,0.18Z " /><path id="路径 34" fill-rule="evenodd" style="fill:#FFFFFF" transform="translate(9.062153051512553 28.55776504402182)  rotate(0 3.744055010168948 1.5185986515424954)" opacity="1" d="M0.49,1.99C-0.09,1.87 -0.19,2.77 0.38,2.89C2.89,3.39 5.49,2.61 7.32,0.81C7.51,0.65 7.54,0.37 7.4,0.17C7.24,-0.02 6.96,-0.06 6.76,0.1C5.12,1.74 2.76,2.45 0.49,1.99Z " /></g><g opacity="1" transform="translate(261.1483636096511 426.2325751700815)  rotate(0 35.91239125739914 33.442139704555274)"><path id="路径 89" fill-rule="evenodd" style="fill:#1E378B" transform="translate(14.115194975133704 0)  rotate(0 12.513785008320262 32.81014314715803)" opacity="1" d="M8,65.62L8.62,65.09C11.82,64.35 15.07,63.6 17.98,62.08C20.88,60.55 23.47,58.14 24.5,55.02C26.16,50.01 23.54,44.73 21.64,39.81C16.77,27.02 16.58,12.92 21.1,0C9.25,4.22 1.67,16.63 0.28,29.14C-1.1,41.65 2.75,54.18 8,65.62Z " /><path id="路径 94" fill-rule="evenodd" style="fill:#1E378B" transform="translate(21.849757092998004 20.601840737499174)  rotate(0 24.98751271090014 22.869657954134926)" opacity="1" d="M41.9,7.7C42.06,7.54 42.23,7.38 42.4,7.22C44.59,5.16 46.93,3.28 49.42,1.59C49.6,1.47 49.79,1.34 49.98,1.22C49.77,1.15 49.58,1.1 49.37,1.04C41.48,-1.23 32.98,0.37 25.67,4.36C22,6.35 18.67,8.92 15.81,11.95C14.7,13.13 13.65,14.36 12.67,15.64C10.88,17.99 9.28,20.47 7.9,23.08C7.8,23.26 7.71,23.43 7.62,23.61C4.63,29.5 2.36,35.71 0.84,42.14C0.84,42.14 0.84,42.14 0.84,42.15C0.63,42.99 0.43,43.83 0.23,44.67C0.23,44.71 0.21,44.76 0.2,44.81C0.2,44.83 0.19,44.85 0.19,44.86C0.18,44.92 0.17,44.97 0.15,45.03C0.14,45.11 0.11,45.2 0.1,45.28C0.07,45.43 0.03,45.58 0,45.72L0.82,45.68C0.87,45.7 0.91,45.72 0.96,45.74L21.48,45.47C21.75,45.17 22,44.85 22.23,44.52C24.45,41.38 25.34,37.15 26.44,33.32C27.23,30.56 28.23,27.86 29.44,25.24C32.47,18.67 36.69,12.73 41.9,7.7Z " /><path id="路径 88" fill-rule="evenodd" style="fill:#004954" transform="translate(0 65.19038930512556)  rotate(0 35.811729678681665 0.8469450519924939)" opacity="1" d="M14.79,1.69L56.83,1.69C61.81,1.28 66.74,0.71 71.62,0L0,0C4.88,0.72 9.81,1.28 14.79,1.69Z " /></g><g opacity="1" transform="translate(278.86551582739907 425.96873708855037)  rotate(0 27.150871222815326 33.18310715625721)"><path id="路径 90" fill-rule="evenodd" style="fill:#FFFFFF" transform="translate(4.104024240674107 0)  rotate(0 6.796439178334298 32.76786826308047)" opacity="1" d="M9.02,45.52C8.01,43.72 6.42,42.36 5.02,40.87C3.5,39.3 2.42,37.36 1.9,35.23C1.44,33.04 1.33,30.78 1.57,28.55C2.51,18.18 6.69,8.36 13.52,0.5C13.75,0.23 13.38,-0.18 13.15,0.09C9.37,4.43 6.37,9.39 4.27,14.74C2.4,19.42 1.28,24.37 0.95,29.4C0.77,31.63 0.97,33.88 1.54,36.04C2.17,38.08 3.29,39.93 4.8,41.44C6.22,42.93 7.87,44.34 8.77,46.24C9.79,48.41 9.38,50.82 8.34,52.9C6.12,57.37 1.37,60.23 0.01,65.18C-0.08,65.52 0.45,65.69 0.54,65.35C1.32,62.5 3.33,60.29 5.24,58.13C6.95,56.18 8.63,54.13 9.47,51.63C10.2,49.63 10.03,47.4 9.02,45.52Z " /><path id="路径 91" fill-rule="evenodd" style="fill:#FFFFFF" transform="translate(0 17.224392077761365)  rotate(0 3.068904510770768 3.989006722324329)" opacity="1" d="M5.95,7.44C2.63,6.7 0.35,3.66 0.57,0.28C0.57,0.13 0.45,0.01 0.3,0C0.15,-0.01 0.03,0.11 0.01,0.26C-0.21,3.89 2.23,7.16 5.78,7.97C6.13,8.05 6.29,7.52 5.95,7.44Z " /><path id="路径 92" fill-rule="evenodd" style="fill:#FFFFFF" transform="translate(8.185458758247364 31.678035396611108)  rotate(0 3.483609836082782 4.53064704262135)" opacity="1" d="M0.39,9.02C3.59,7.06 5.94,3.97 6.96,0.36C7.05,0.01 6.52,-0.15 6.43,0.19C5.45,3.66 3.21,6.64 0.14,8.53C-0.17,8.71 0.09,9.21 0.39,9.02Z " /><path id="路径 93" fill-rule="evenodd" style="fill:#FFFFFF" transform="translate(10.639020598482489 9.606395553614448)  rotate(0 2.3678892373678724 0.6198954559644316)" opacity="1" d="M0.01,0.48C-0.03,0.63 0.05,0.78 0.19,0.83C1.62,1.47 3.27,1.36 4.6,0.53C4.9,0.35 4.65,-0.15 4.34,0.04C3.14,0.79 1.65,0.89 0.36,0.3C0.21,0.25 0.06,0.33 0.01,0.48Z " /><path id="路径 95" fill-rule="evenodd" style="fill:#FFFFFF" transform="translate(4.220999810030776 21.784470645995782)  rotate(0 25.040371317799938 22.290871833259317)" opacity="1" d="M19.14,33.8C19.42,31.75 18.97,29.71 18.75,27.68C18.48,25.51 18.79,23.31 19.65,21.3C20.61,19.27 21.87,17.4 23.41,15.77C30.4,8.05 39.65,2.72 49.84,0.56L49.84,0.56C50.19,0.49 50.14,-0.07 49.79,0.01C44.17,1.2 38.79,3.35 33.88,6.36C29.57,8.98 25.7,12.25 22.41,16.07C20.92,17.74 19.73,19.66 18.88,21.73C18.15,23.73 17.93,25.89 18.23,28C18.46,30.05 18.93,32.16 18.5,34.22C18.02,36.57 16.23,38.25 14.15,39.29C9.69,41.52 4.18,40.94 0.11,44.07C-0.17,44.29 0.15,44.74 0.43,44.52C2.77,42.73 5.71,42.17 8.53,41.59C11.07,41.07 13.65,40.44 15.82,38.95C17.61,37.78 18.82,35.91 19.14,33.8Z " /><path id="路径 96" fill-rule="evenodd" style="fill:#FFFFFF" transform="translate(27.988406250543846 25.206983054976206)  rotate(0 1.1439420791451667 4.913975460826757)" opacity="1" d="M2.2,9.4C0,6.82 0.01,3.02 2.22,0.45C2.45,0.18 2.02,-0.17 1.79,0.1C-0.58,2.86 -0.6,6.94 1.75,9.73C1.98,10 2.43,9.68 2.2,9.4Z " /><path id="路径 97" fill-rule="evenodd" style="fill:#FFFFFF" transform="translate(22.411031454510464 45.519858704070884)  rotate(0 5.396080342953523 1.7728163700303523)" opacity="1" d="M0.22,3.48C3.96,3.84 7.69,2.78 10.68,0.51C10.97,0.29 10.64,-0.16 10.36,0.06C7.49,2.24 3.91,3.27 0.32,2.93C-0.04,2.89 -0.13,3.44 0.22,3.48Z " /><path id="路径 98" fill-rule="evenodd" style="fill:#FFFFFF" transform="translate(42.610455227047225 25.750193891345646)  rotate(0 2.030773521859168 1.4297168079251465)" opacity="1" d="M0.11,0.05C-0.01,0.14 -0.04,0.31 0.05,0.44C0.8,1.81 2.19,2.71 3.74,2.86C4.1,2.89 4.19,2.34 3.84,2.31C2.43,2.19 1.17,1.36 0.5,0.12C0.41,-0.01 0.24,-0.04 0.11,0.05Z " /></g><g opacity="1" transform="translate(104.54899866786445 9.67772388969873)  rotate(0 203.9291153358301 133.5013174540212)"><path id="路径 103" fill-rule="evenodd" style="fill:#C5E1EB" transform="translate(0 60.660873513173215)  rotate(0 103.18855167369156 16.622435390449976)" opacity="1" d="M150.28,1.9C148.3,0.9 145.88,-0.22 143.11,0.04C141.79,0.2 140.5,0.59 139.31,1.2C130.57,5.27 123.86,10.32 115.09,14.36C97.02,22.7 70.32,26.09 46.48,23.05C32.46,21.27 18.39,17.44 4.53,16.27C3,18.07 1.48,19.89 0,21.73C6.43,22.97 13.53,23.81 19.92,24.95C33.19,27.34 45.11,31.72 59.03,32.89C65.36,33.32 71.72,33.36 78.06,33.01C121.3,31.33 163.84,25.19 202.22,15.1C204.64,14.46 207.44,13.15 205.97,12C186.22,15.31 164.94,9.29 150.28,1.9Z " /><path id="路径 104" fill-rule="evenodd" style="fill:#E5E5E5" transform="translate(288.03078470427 100.09317968574746)  rotate(0 1.0672425258241867 0.8488822463114172)" opacity="1" d="M2.13,1.61C1.38,1.14 0.66,0.6 0,0L1.59,1.7C1.77,1.66 1.95,1.64 2.13,1.61Z " /><path id="路径 105" fill-rule="evenodd" style="fill:#C5E1EB" transform="translate(290.1655962691942 100.76569852220751)  rotate(0 58.84631720123298 8.660164559558295)" opacity="1" d="M111.15,4.67C94.78,8.35 77.9,9.18 61.24,7.13C40.65,4.51 19.97,-2.52 0,0.94C7.73,5.79 22.51,6.84 34.68,9.03C47.95,11.42 59.88,15.79 73.79,16.96C80.12,17.39 86.48,17.43 92.82,17.09C101.15,16.77 109.44,16.28 117.69,15.62C115.61,11.9 113.43,8.25 111.15,4.67Z " /><path id="路径 106" fill-rule="evenodd" style="fill:#D1B89F" transform="translate(152.93804239115354 0)  rotate(0 35.31556484816333 133.50131745402123)" opacity="1" d="M61,228.29C66.32,228.29 70.63,223.98 70.63,218.66C70.63,215.32 70.16,211.99 69.23,208.78C49.9,142.46 38.53,74.08 38.53,5.01L38.53,0L32.11,0L32.11,5.01C32.11,74.08 20.73,142.46 1.41,208.78C0.47,211.99 0,215.32 0,218.66C0,223.98 4.31,228.29 9.63,228.29L22.47,228.29C22.47,232.88 24.92,237.12 28.89,239.41C32.87,241.71 37.76,241.71 41.74,239.41C45.71,237.12 48.16,232.88 48.16,228.29L58.15,228.29L58.15,255.97C55.22,256.05 52.87,258.41 52.79,261.34C52.72,264.26 54.94,266.74 57.85,266.98C60.77,267.23 63.37,265.15 63.78,262.25C64.18,259.35 62.26,256.64 59.38,256.07L59.38,228.29L61,228.29Z " /></g><g opacity="1" transform="translate(86.22338917078078 186.28516367682545)  rotate(0 228.19254387754532 399.35741816158725)"><g opacity="1" transform="translate(0 0)  rotate(0 87.80442670749383 158.11083240928215)"><path id="路径 42" fill-rule="evenodd" style="fill:#9E616A" transform="translate(125.5192341545925 231.07395894413023)  rotate(0 10.228490415536767 22.764035117444795)" opacity="1" d="M0 3.67L16.02 0L20.46 43.04L9.6 45.53L0 3.67Z" /><path id="路径 43" fill-rule="evenodd" style="fill:#2F2E41" transform="translate(16.08549432035855 150.05753591867213)  rotate(0 64.90660194742861 54.64797455474472)" opacity="1" d="M106.76,99.31L107.05,99.64L111.98,109.3L114.92,108.62L127.43,105.75L127.49,105.63C127.49,105.61 127.65,105.27 127.89,104.68L127.89,104.66C128.87,102.22 131.04,95.54 128.91,89.2C128.69,88.45 128.54,87.67 128.46,86.88C128.37,85.95 128.19,85.03 127.92,84.14C127.61,83.33 127.23,82.54 126.78,81.8C126.56,81.41 126.34,81.01 126.13,80.61C125.93,80.21 125.75,79.8 125.6,79.37C119.25,60.62 110.39,35.13 104.24,20.21C100.62,11.43 78.38,8.51 57.4,7.77C54.84,7.67 52.3,7.61 49.82,7.58C48.96,7.57 48.11,7.56 47.27,7.55C45.11,7.54 43.01,7.54 40.99,7.56C40.73,7.56 40.46,7.56 40.2,7.57C38.73,7.58 37.3,7.6 35.92,7.63C26.42,7.82 19.44,8.25 18.19,8.33L7.11,1.36L4.95,0L4.72,1.36L2.98,11.75L0,29.47L7.46,31.56L12.3,32.92L40.99,40.96L47.09,42.67L47.13,42.69L57.4,42.67L85.48,42.62L86.83,46.21C85.85,47.74 85.57,49.62 86.07,51.37C86.56,53.11 87.79,54.57 89.43,55.35L90.48,55.85L103.31,89.8C103.35,92.87 104.31,95.86 106.07,98.38C106.28,98.7 106.52,99 106.76,99.31Z " /><path id="路径 44" fill-rule="evenodd" style="fill:#2F2E41" transform="translate(131.45563363051986 263.4311959148851)  rotate(0 22.07660989223391 12.907442592365598)" opacity="1" d="M2.7,8.96L0,9.57L3.73,25.81L44.15,16.54L44.03,16.03C43.09,11.85 40.51,8.22 36.88,5.95C33.25,3.67 28.87,2.94 24.69,3.91L16.02,0L13.6,1.71L3.53,8.77L2.7,8.96Z " /><path id="路径 45" fill-rule="evenodd" style="fill:#9E616A" transform="translate(105.43311079869478 254.41963280608087)  rotate(0 8.215197234908315 18.592539048593565)" opacity="1" d="M0,0.01L0.2,37.01C2.11,37.92 3.51,34.9 5.46,35.76C7.54,36.68 9.99,34.25 12.1,35.12L12.64,30.69L12.76,29.71L16.43,0L0,0.01Z " /><path id="路径 44" fill-rule="evenodd" style="fill:#2F2E41" transform="translate(101.44918962395941 285.78439324444435)  rotate(12.960126832323112 22.07660989223391 12.907442592365598)" opacity="1" d="M36.88,5.95C33.25,3.67 28.87,2.94 24.69,3.91L16.02,0L13.6,1.71L3.53,8.77L2.7,8.96L0,9.57L3.73,25.81L44.15,16.54L44.03,16.03C43.09,11.85 40.51,8.22 36.88,5.95Z " /><path id="路径 46" fill-rule="evenodd" style="fill:#9E616A" transform="translate(20.097597045545555 5.708021730504697)  rotate(0 22.22333140505475 22.219624997624404)" opacity="1" d="M22.22,0C9.95,0 0,9.95 0,22.22C0,34.49 9.95,44.44 22.22,44.44C34.5,44.44 44.45,34.49 44.45,22.22C44.45,9.95 34.5,0 22.22,0Z " /><path id="路径 47" fill-rule="evenodd" style="fill:#2F2E41" transform="translate(6.237811514735668 156.98093906288776)  rotate(0 59.649487587364106 63.57633070184107)" opacity="1" d="M119.27,70.08C117.7,50.13 110.65,31.36 107.49,28.2C102.68,23.4 80.95,12.3 67.25,5.55C64.81,4.35 62.63,3.29 60.85,2.43C59.26,1.66 57.99,1.05 57.12,0.63C56.45,0.31 56.02,0.11 55.87,0.04L55.8,0L50.84,0.55L50.05,0.65L45.67,1.14L17.22,4.33L12.82,4.82L6.61,5.53L0.99,6.15L0.79,6.17L0.75,6.38C0.75,6.39 0.74,6.43 0.72,6.51C-0.24,12.6 -0.24,18.8 0.72,24.89C1.45,29.02 2.82,33.22 5.26,36.76C5.6,37.24 5.94,37.7 6.31,38.15C6.32,38.17 6.34,38.19 6.36,38.21C6.44,38.31 6.52,38.41 6.61,38.5L6.61,38.51C9.4,41.75 13.14,44.03 17.31,45.02C17.92,45.19 18.55,45.32 19.2,45.43C26.09,46.65 33.88,47.77 41.51,48.76C44.67,49.17 47.81,49.55 50.84,49.91C56.91,50.62 62.58,51.22 67.25,51.7C73.79,52.37 78.38,52.78 79.41,52.87L90.84,106.17C88.99,109.3 89.53,113.28 92.15,115.79L93.09,116.69L94.17,121.77L97.75,126.55L98.2,127.15L113.96,127.15L114.05,127.05C114.1,126.97 119.65,119.85 119.27,111.37C119.24,110.5 118.63,109.67 117.99,108.78C117.37,107.93 116.73,107.05 116.69,106.21C116.55,103.23 116.4,100.29 116.25,97.41C116.14,95.39 116.03,93.4 115.92,91.46C115.9,91.21 115.88,90.96 115.87,90.72C115.68,87.5 116.64,84.1 117.55,80.81C117.86,79.73 118.16,78.64 118.43,77.55C119.11,75.12 119.39,72.6 119.27,70.08Z " /><path id="路径 48" fill-rule="evenodd" style="fill:#9E616A" transform="translate(94.66379118566415 86.80981724820813)  rotate(0 17.72490172449464 12.772805831798323)" opacity="1" d="M22.07,1.51C20.01,2.94 18.69,5.21 18.46,7.7L0,13.47L0.77,25.55L26.73,17.03C31.04,17.13 34.75,14 35.36,9.73C35.97,5.46 33.3,1.41 29.13,0.3C26.71,-0.36 24.13,0.08 22.07,1.51Z " /><path id="路径 49" fill-rule="evenodd" style="fill:#1E378B" transform="translate(33.47898590223403 67.22797292590826)  rotate(0 39.13292107106297 30.25279718236697)" opacity="1" d="M64.47 45.08L64.11 45.77C63.27 47.41 61.8 48.65 60.04 49.21C58.29 49.77 56.38 49.61 54.73 48.77L23.71 60.51C23.71 60.51 9.86 46.65 0 34.28L3.36 13.61C4.14 8.81 5.79 4.2 8.24 0C28.47 4.43 40.08 32.7 40.08 32.7L76.53 25.75L78.27 39.86L64.47 45.08Z" /><path id="路径 50" fill-rule="evenodd" style="fill:#2F2E41" transform="translate(13.446907941260747 0)  rotate(0 31.276705648089166 24.7308339493902)" opacity="1" d="M26.19,27.64C27.19,27.54 28.16,28.07 29.15,27.99C30.73,27.86 31.79,26.28 32.21,24.76C32.62,23.24 32.66,21.59 33.38,20.19C34.76,17.51 38.25,16.55 41.22,17.04C44.2,17.54 46.85,19.13 49.59,20.39C52.33,21.65 55.44,22.61 58.33,21.73C61.21,20.86 63.47,17.49 62.18,14.76L54.7,17.19C57.57,15.81 59.16,12.68 58.58,9.54C56.32,12.27 52.51,13.13 49.29,11.64C47.76,6.71 43.32,3.07 38.44,1.41C33.55,-0.26 28.25,-0.2 23.11,0.33C19.57,0.69 15.86,1.35 13.15,3.66C10.45,5.97 9.29,10.43 11.61,13.13C7.85,11.2 2.98,13.78 1.17,17.59C-0.64,21.4 -0.09,25.91 1.05,29.97C2.62,35.52 5.34,40.89 9.68,44.68C14.02,48.46 20.15,50.46 25.72,48.96L25.59,48.3L23.69,33.77C23.45,32.55 23.45,31.3 23.7,30.08C23.97,28.85 24.95,27.89 26.19,27.64Z " /><path id="路径 51" fill-rule="evenodd" style="fill:#1E378B" transform="translate(0 53.515703837647465)  rotate(0 33.73566408089678 71.44024362343723)" opacity="1" d="M6.96,129.89C7.61,132.01 8.39,134.13 9.15,136.2C9.81,138 10.5,139.85 11.08,141.67C11.19,142.01 11.29,142.34 11.39,142.68L11.44,142.85L11.62,142.88L11.63,142.88C11.87,142.45 12.16,142.04 12.49,141.67C12.51,141.65 12.53,141.63 12.55,141.61C12.64,141.51 12.73,141.4 12.85,141.28C14.19,139.81 17.13,137.16 23.55,132.71C24.98,131.72 26.59,130.64 28.39,129.46C34.99,125.14 44.2,119.52 57.08,112.25C60.31,110.43 63.77,108.5 67.47,106.47L67.08,105.89L65.91,104.12L57.32,91.24L57.15,90.99L59.8,77.22L60.63,72.92L62.43,63.56L61.91,42.15L61.53,26.99L61.48,24.62L59.57,18.81C57.75,13.33 53.73,8.85 48.48,6.43L35.67,0.56C32.53,-0.87 28.83,0.52 27.4,3.66C27.34,3.79 27.29,3.91 27.24,4.04C25.48,4.28 17.86,5.56 11.4,10.58C6.87,14.02 3.71,18.96 2.48,24.51C2.46,24.55 2.46,24.6 2.45,24.64C1.59,28.47 0.95,34.5 0.54,42.68C0.26,48.09 0.08,54.43 0.01,61.69C-0.1,73.8 0.58,85.9 2.05,97.92C2.19,99.07 2.34,100.21 2.5,101.35C2.62,102.31 2.05,102.89 2.5,103.89C3.31,104.7 2.5,105.65 2.94,106.65C3.39,107.65 3.93,110.7 4.1,111.68C4.49,113.89 4.71,116.13 4.93,118.3C5.17,121.28 5.6,124.25 6.22,127.18C6.44,128.08 6.68,128.98 6.96,129.89Z " /><path id="路径 86" fill-rule="evenodd" style="fill:#9E616A" transform="translate(94.25438050141749 113.73773069904385)  rotate(0 19.20662701445831 8.5216911546341)" opacity="1" d="M27.03,0.49C24.67,1.33 22.8,3.18 21.94,5.53L2.6,6.28L0,15.28L27.48,16.69C31.62,17.92 36.02,15.86 37.72,11.89C39.42,7.93 37.9,3.32 34.16,1.16L34.16,1.16C32,-0.1 29.39,-0.35 27.03,0.49Z " /><path id="路径 87" fill-rule="evenodd" style="fill:#1E378B" transform="translate(29.242513110833812 75.1928043444552)  rotate(0 41.64719650826638 28.10350626382572)" opacity="1" d="M60.92 55.93L20.52 55.42C20.52 55.42 9.55 44.95 0 34.18L1.34 24.49C2.65 14.99 7.36 6.29 14.61 0C28.29 9.14 36.22 27.23 36.22 27.23L49.53 33.19C58.89 33.6 68.01 36.28 76.12 40.97L80.5 43.51L83.29 56.21L63.44 55.96L60.92 55.93Z" /></g><g opacity="1" transform="translate(34.47661082921918 87.80564550003425)  rotate(0 210.95423846293573 355.45459541157015)"><path id="路径 35" fill-rule="evenodd" style="fill:#3F3D56" transform="translate(-52.83023941068139 -41.24906502537013)  rotate(0 12.128575898835873 30.316361178474274)" opacity="1" d="M0,0L0,60.63L10.7,60.63L10.7,33.22C18.57,31.68 24.26,24.78 24.26,16.76C24.26,7.51 16.75,0 7.49,0L0,0Z " /><path id="路径 40" fill-rule="evenodd" style="fill:#3F3D56" transform="translate(-54.57845303867401 107.38328854877642)  rotate(0 33.92649723506603 13.927251340021721)" opacity="1" d="M59.76,0L18.28,0L0,27.84L0,27.85L59.76,27.84C64.23,27.83 67.85,24.21 67.85,19.74L67.85,8.09C67.85,3.63 64.23,0.01 59.76,0Z " /><path id="路径 41" fill-rule="evenodd" style="fill:#3F3D56" transform="translate(-60.23885819521176 7.043693595319553)  rotate(0 13.606873786487334 64.09719872178222)" opacity="1" d="M0.02,11.94L0,128.19L21.94,128.19L27.2,128.19L27.21,11.94C27.21,7.49 24.73,3.41 20.79,1.35C19.08,0.46 17.19,0 15.27,0L11.97,0C10.4,0 8.86,0.31 7.41,0.91C2.94,2.75 0.03,7.11 0.02,11.94Z " /><path id="路径 68" fill-rule="evenodd" style="fill:#999999" transform="translate(22.563351749539578 43.63510191658531)  rotate(0 64.27026309745585 87.88653735388604)" opacity="1" d="M121.34,23.82L121.72,175.77L128.49,175.77L128.54,16.05C128.54,15 128.5,13.95 128.4,12.91C127.83,6.41 125.56,1.39 122.7,0.24C122.32,0.08 121.91,0 121.5,0L7.08,0C3.65,0.01 0.73,5.63 0.14,13.32C0.07,14.22 0.04,15.14 0.04,16.05L0,175.77L7.26,175.77L7.23,23.82C7.23,20.52 8.41,17.84 9.86,17.83L118.72,17.83C120.17,17.84 121.34,20.52 121.34,23.82Z " /><path id="路径 69" fill-rule="evenodd" style="fill:#3F3D56" transform="translate(114.61996216130706 -13.670912670132054)  rotate(0 7.4913234628035275 28.533116831598768)" opacity="1" d="M14.98 57.07L11.69 57.07L7.13 52.07L0 20.69L0.76 9.7L0.76 9.69L1.43 0L14.98 57.07Z" /><path id="路径 70" fill-rule="evenodd" style="fill:#3F3D56" transform="translate(78.58954251528755 38.76535881524012)  rotate(0 29.96529751021041 4.33019906582339)" opacity="1" d="M4,8.66L58.22,8.66C58.8,8.65 59.34,8.35 59.65,7.86C59.97,7.38 60.02,6.77 59.79,6.23C59.77,6.19 59.74,6.14 59.71,6.1C59.64,5.95 59.55,5.82 59.43,5.7L58.6,4.87L54.23,0.49C53.9,0.18 53.47,0 53.02,0L53.01,0L49.92,0.02L47.26,0.04L43.56,0.06L18.3,0.22L1.69,0.33C0.76,0.34 0,1.1 0,2.03C0,2.28 0.06,2.53 0.16,2.75L0.48,3.44L1.15,4.87L2.03,6.75L2.46,7.67C2.74,8.28 3.34,8.66 4,8.66Z " /><path id="路径 71" fill-rule="evenodd" style="fill:#000000" transform="translate(80.61726388633556 44.86566072052716)  rotate(0 28.951624345154976 1.280426928603206)" opacity="0.17" d="M0.43,1.58C0.71,2.17 1.31,2.56 1.98,2.56L56.2,2.56C56.78,2.55 57.31,2.25 57.63,1.77C57.94,1.28 57.99,0.67 57.76,0.14C57.74,0.09 57.71,0.04 57.68,0L0,0.65L0.43,1.58Z " /><path id="路径 72" fill-rule="evenodd" style="fill:#000000" transform="translate(115.37648726100457 -13.670912670132054)  rotate(0 7.113060912954729 28.533116831598768)" opacity="0.17" d="M14.23 57.07L11.61 57.07L0 9.7L0 9.69L0.67 0L14.23 57.07Z" /><path id="路径 73" fill-rule="evenodd" style="fill:#3F3D56" transform="translate(101.11703364327582 -136.76742202334174)  rotate(0 17.011953787295052 82.63751836284462)" opacity="1" d="M14.71,149.06L15.94,139.67L16.98,131.74L16.98,131.73L34.01,2.24C34.14,1.26 33.45,0.37 32.48,0.24L32.47,0.24L30.77,0.01C30.3,-0.05 29.83,0.08 29.46,0.37L28.44,1.15L17.12,15.3C16.75,15.59 16.5,16.02 16.44,16.49L15.81,21.3L0.01,141.47C-0.04,141.92 0.07,142.37 0.33,142.73L7.77,163.24L7.99,163.56L8.47,164.25C8.72,164.6 9.08,164.84 9.5,164.95L10.57,165.22C11.07,165.35 11.59,165.25 12.02,164.96C12.44,164.68 12.72,164.22 12.78,163.72L14.71,149.07L14.71,149.06Z " /><path id="路径 74" fill-rule="evenodd" style="fill:#000000" transform="translate(108.88627814470811 -136.76728817731887)  rotate(0 13.126405172014607 82.63630501011124)" opacity="0.17" d="M4.24,164.96C4.67,164.68 4.94,164.22 5.01,163.72L26.24,2.24C26.37,1.26 25.68,0.37 24.7,0.24L23,0.02C22.53,-0.05 22.06,0.08 21.68,0.37L20.67,1.15L0,163.25L0.22,163.56L0.7,164.25C0.95,164.59 1.31,164.84 1.73,164.95L2.81,165.22C3.3,165.34 3.82,165.25 4.24,164.96Z " /><path id="路径 75" fill-rule="evenodd" style="fill:#FFFFFF" transform="translate(104.94099974978508 -130.9829657117163)  rotate(0 12.001827141497293 64.42048853466252)" opacity="1" d="M7.07 128.84L0 114.82L13.04 15.65L24 0L7.07 128.84Z" /><path id="路径 75" fill-rule="evenodd" style="fill:#1E378B" transform="translate(104.94099974978508 -130.9829657117163)  rotate(0 12.001827141497293 64.42048853466252)" opacity="0.07" d="M7.07 128.84L0 114.82L13.04 15.65L24 0L7.07 128.84Z" /><path id="路径 83" fill-rule="evenodd" style="fill:#3F3D56" transform="translate(-37.32872255882478 63.61316793513765)  rotate(0 27.467123339936933 34.607714887841084)" opacity="1" d="M0,5.57C0.12,8.44 2.48,10.7 5.35,10.7L15.7,10.7L15.7,57.18C18.28,60.64 20.96,64.03 23.74,67.34C24.25,67.97 24.78,68.59 25.31,69.22C26.02,68.29 26.4,67.15 26.4,65.98L26.4,10.7L49.58,10.7C52.02,10.7 54.14,9.06 54.76,6.7C54.8,6.56 54.83,6.42 54.85,6.27C54.91,5.97 54.94,5.66 54.93,5.35C54.93,2.39 52.54,0 49.58,0L5.35,0C5.2,0 5.05,0.01 4.9,0.02C2.05,0.26 -0.11,2.71 0,5.57Z " /></g></g><g opacity="1" transform="translate(326.4772337421073 274.0911278214959)  rotate(0 370.2626417383321 366.12160842154606)"><g opacity="1" transform="translate(73.02379638420109 101.6643457608275)  rotate(19.52974621156487 257.71044283373567 262.79202816212637)"><path id="路径 3" fill-rule="evenodd" style="fill:#000000" transform="translate(10.288850141528087 22.49188786197908)  rotate(0 34.74399496314416 32.239410502023624)" opacity="1" d="M8.45,45.08C10.59,46.91 14.03,48.29 15.98,50.17C17.02,51.17 17.63,52.31 17.39,53.74C16.75,57.51 16.89,59.96 17.54,61.53C19.32,65.82 24.89,63.63 28.7,64.48C29.11,64.37 29.51,64.25 29.91,64.13C38.54,61.68 47.02,58.75 55.31,55.35C57.63,54.4 59.95,53.42 62.24,52.39C62.85,52.12 63.46,51.85 64.07,51.57C64.61,51.33 65.16,51.08 65.7,50.82C66.2,50.6 66.7,50.36 67.2,50.13C67.36,50.05 67.52,49.97 67.69,49.89C68.29,49.61 68.89,49.32 69.49,49.03C68.88,47.84 68.24,46.67 67.61,45.49C66.45,43.36 64.51,41.49 64.14,39.08C62.94,31.37 60.04,25.84 55.24,22.7C53.85,21.8 53.63,19.8 52.77,18.36C52.39,17.71 52,17.06 51.6,16.43C50.96,15.37 50.28,14.34 49.58,13.33C48.26,11.37 46.79,9.51 45.2,7.76C44.54,7.03 43.85,6.32 43.13,5.65L43.12,5.64C42.67,5.21 42.21,4.8 41.74,4.4C41.56,4.24 41.36,4.08 41.17,3.92L41.16,3.91C40.32,3.18 39.45,2.51 38.54,1.88C36.45,0.47 34.1,-0.5 31.67,0.28C30.72,0.6 29.81,1.02 28.94,1.53C28.5,1.79 28.06,2.05 27.62,2.32C27.32,2.49 27.03,2.67 26.73,2.86C26.49,3 26.25,3.14 26.01,3.28C24.15,4.35 22.28,5.4 20.41,6.43C20.14,6.58 19.86,6.73 19.59,6.88L19.58,6.88C19.39,6.99 19.19,7.1 19,7.2C18.62,7.41 18.24,7.62 17.86,7.82C16.73,8.43 15.61,9.04 14.47,9.63C13.89,9.94 13.31,10.24 12.72,10.53C12.45,10.67 12.18,10.8 11.92,10.95L11.91,10.95C11.81,11 11.72,11.04 11.62,11.09C10.82,11.51 10.03,11.93 9.27,12.39C7.05,13.73 5.13,15.49 3.61,17.59C3.31,17.99 3.03,18.41 2.77,18.84C2.43,19.4 2.12,19.98 1.84,20.57C1.65,20.97 1.47,21.37 1.31,21.77L1.31,21.78C-0.2,25.67 -0.41,29.95 0.71,33.98L0.71,33.98C0.78,34.26 0.86,34.53 0.96,34.8C1.11,35.26 1.27,35.71 1.46,36.16C1.66,36.65 1.89,37.13 2.15,37.6L2.15,37.61C3.52,39.95 5.23,42.07 7.22,43.91L7.28,43.97C7.53,44.21 7.78,44.45 8.03,44.69C8.17,44.82 8.31,44.95 8.45,45.08Z " /><path id="路径 4" fill-rule="evenodd" style="fill:#000000" transform="translate(0 0)  rotate(0 27.107267032935724 30.891243757677056)" opacity="1" d="M37.32 59.79C48.33 55.31 55.14 44.17 54.11 32.33C53.08 20.48 44.45 10.69 32.82 8.19C34.12 4.28 32.34 1.7 27.76 0.33C27.44 0.04 27 -0.07 26.58 0.04C26.17 0.15 25.84 0.47 25.71 0.88L21.7 12.73C18.22 11.84 15.51 12.2 14.31 14.74C14.9 11.55 13.19 9.5 9.24 8.54C8.93 8.24 8.49 8.11 8.07 8.21C7.64 8.3 7.3 8.61 7.15 9.01L4.52 19.69C-2.05 29.6 -1.41 42.63 6.12 51.83C13.65 61.04 26.3 64.26 37.32 59.79Z" /><path id="路径 5" fill-rule="evenodd" style="fill:#FFFFFF" transform="translate(27.10625261749294 38.657835654832354)  rotate(0 2.19489498446177 1.7895747615263011)" opacity="1" d="M4.12,0.17C4.03,0.01 3.83,-0.05 3.67,0.04C3.51,0.13 3.45,0.32 3.53,0.49C3.96,1.29 3.66,2.29 2.86,2.72C2.05,3.15 1.05,2.85 0.62,2.05C0.53,1.89 0.33,1.83 0.17,1.91C0.01,2 -0.05,2.2 0.04,2.36C0.64,3.48 2.04,3.91 3.17,3.3C4.3,2.7 4.72,1.3 4.12,0.17Z " /><path id="路径 6" fill-rule="evenodd" style="fill:#FFFFFF" transform="translate(24.73212930197161 35.19071881519926)  rotate(-28.21872 2.643654782632988 1.0166235636087646)" opacity="1" d="M2.64,0C1.18,0 0,0.46 0,1.02C0,1.58 1.18,2.03 2.64,2.03C4.1,2.03 5.29,1.58 5.29,1.02C5.29,0.46 4.1,0 2.64,0Z " /><path id="路径 7" fill-rule="evenodd" style="fill:#FFFFFF" transform="translate(9.384512637420528 25.100248325018867)  rotate(0 6.539880338736822 6.420476575985392)" opacity="1" d="M7.78,8.85C9.31,8.02 11.14,7.92 12.76,8.57C13.58,6.06 12.8,3.3 10.8,1.57C8.79,-0.15 5.94,-0.49 3.58,0.71C1.22,1.9 -0.18,4.4 0.02,7.04C0.22,9.68 1.99,11.93 4.51,12.75C4.6,12.78 4.7,12.81 4.8,12.84C5.15,11.13 6.24,9.67 7.78,8.85Z " /><path id="路径 8" fill-rule="evenodd" style="fill:#3F3D56" transform="translate(13.886288487943148 31.06906468672105)  rotate(0 2.24959022235484 2.2492150356754266)" opacity="1" d="M2.25,0C1.01,0 0,1.01 0,2.25C0,3.49 1.01,4.5 2.25,4.5C3.49,4.5 4.5,3.49 4.5,2.25C4.5,1.01 3.49,0 2.25,0Z " /><path id="路径 9" fill-rule="evenodd" style="fill:#FFFFFF" transform="translate(24.956263440336272 17.006016021727817)  rotate(0 6.5398803387368565 6.420476575985356)" opacity="1" d="M10.8 1.57C12.8 3.3 13.58 6.06 12.76 8.57C11.14 7.92 9.31 8.02 7.78 8.85C6.24 9.67 5.15 11.13 4.8 12.84C4.7 12.81 4.6 12.78 4.51 12.75C1.99 11.93 0.22 9.68 0.02 7.04C-0.18 4.4 1.22 1.9 3.58 0.71C5.94 -0.49 8.79 -0.15 10.8 1.57Z" /><path id="路径 10" fill-rule="evenodd" style="fill:#3F3D56" transform="translate(30.28368663500771 22.84935516412719)  rotate(0 2.24959022235484 2.2492150356754266)" opacity="1" d="M2.25,0C1.01,0 0,1.01 0,2.25C0,3.49 1.01,4.5 2.25,4.5C3.49,4.5 4.5,3.49 4.5,2.25C4.5,1.01 3.49,0 2.25,0Z " /><path id="路径 11" fill-rule="evenodd" style="fill:#FFFFFF" transform="translate(34.886556534563624 28.693055621602355)  rotate(-45.53938 5.483091237951967 0.5430180501349402)" opacity="1" d="M0,1.09L10.97,1.09L10.97,0L0,0L0,1.09Z " /><path id="路径 12" fill-rule="evenodd" style="fill:#FFFFFF" transform="translate(36.429136260949235 31.56678705744889)  rotate(-32.19276 5.483115880463357 0.5430211299351293)" opacity="1" d="M0,1.09L10.97,1.09L10.97,0L0,0L0,1.09Z " /><path id="路径 13" fill-rule="evenodd" style="fill:#FFFFFF" transform="translate(8.899064583650045 42.63602284646089)  rotate(-10.89806 5.483091237951967 0.5430180501349402)" opacity="1" d="M0,1.09L10.97,1.09L10.97,0L0,0L0,1.09Z " /><path id="路径 14" fill-rule="evenodd" style="fill:#FFFFFF" transform="translate(10.44116212693126 45.51000165634298)  rotate(-24.24467 5.483115880463357 0.5430211299351293)" opacity="1" d="M0,1.09L10.97,1.09L10.97,0L0,0L0,1.09Z " /><path id="路径 99" fill-rule="evenodd" style="fill:#000000" transform="translate(12.369258522958376 54.52097317639317)  rotate(0 6.525860669651183 6.524772286544502)" opacity="1" d="M6.53,0C2.92,0 0,2.92 0,6.52C0,10.13 2.92,13.05 6.53,13.05C10.13,13.05 13.05,10.13 13.05,6.52C13.05,2.92 10.13,0 6.53,0Z " /><path id="路径 100" fill-rule="evenodd" style="fill:#000000" transform="translate(27.159029630254736 80.39240581096522)  rotate(0 6.520987053851114 4.708939414688798)" opacity="1" d="M8.7,0.38C6.2,-0.51 3.41,0.21 1.64,2.19C-0.12,4.18 -0.5,7.04 0.68,9.42C4.42,8.56 8.14,7.61 11.83,6.58C12.23,6.47 12.64,6.35 13.04,6.23C12.92,3.58 11.21,1.26 8.7,0.38Z " /><path id="路径 101" fill-rule="evenodd" style="fill:#000000" transform="translate(64.73927835259155 68.08320665525474)  rotate(0 6.372922559823859 4.879487225193565)" opacity="1" d="M12.27,3.43C10.56,0.26 6.61,-0.92 3.44,0.78C0.27,2.48 -0.92,6.42 0.77,9.6C0.8,9.65 0.83,9.71 0.86,9.76C3.18,8.81 5.5,7.82 7.79,6.8C8.4,6.53 9.01,6.26 9.62,5.98C10.16,5.74 10.71,5.49 11.25,5.23C11.75,5 12.25,4.77 12.75,4.54C12.62,4.15 12.46,3.78 12.27,3.43Z " /><path id="路径 102" fill-rule="evenodd" style="fill:#000000" transform="translate(35.386405308072824 38.50540855242525)  rotate(0 6.525860669651183 6.524772286544502)" opacity="1" d="M6.53,0C2.92,0 0,2.92 0,6.52C0,10.13 2.92,13.05 6.53,13.05C10.13,13.05 13.05,10.13 13.05,6.52C13.05,2.92 10.13,0 6.53,0Z " /><path id="矩形 1" fill-rule="evenodd" style="fill:#000000" transform="translate(412.88052758182647 441.7063573579583)  rotate(-67.89933826087906 61.2267338631192 19.72747664669086)" opacity="1" d="M0,39.45C0,39.45 42.76,34.41 60.69,18.37C67.87,11.96 77.4,9.09 89.33,10.62C107.22,12.92 126.73,21.71 121.63,15.95C119.26,13.27 116.76,7.67 98.54,2.37C87.56,-0.82 70.72,-2.01 60.67,6.81C39.38,25.51 9.44,26.11 9.44,26.11L0,39.45Z " /></g><g opacity="1" transform="translate(350.71678902958377 107.17156622101007)  rotate(0 182.43012725763896 312.53582531104104)"><path id="路径 53" fill-rule="evenodd" style="fill:#FFB6B6" transform="translate(-314.4340808272869 42.14330826965727)  rotate(0 11.949769836184212 19.530860878965797)" opacity="1" d="M11.52 0L23.9 5.92L8.39 39.06L0 35.05L11.52 0Z" /><path id="路径 54" fill-rule="evenodd" style="fill:#FFB6B6" transform="translate(-268.9415472764793 55.6230370497841)  rotate(0 12.022099447513812 21.01641860416992)" opacity="1" d="M13.1,38.03L14.63,42.03L15.69,41.77L15.71,41.77L15.75,41.76L15.75,41.74C18.55,40.14 21.31,38.5 24.04,36.8L23.86,36.06L22.05,28.79L15.75,3.39L14.91,0L0,3.65L9.59,28.8L13.1,38.03Z " /><path id="路径 55" fill-rule="evenodd" style="fill:#FFB6B6" transform="translate(-285.0798017332353 -84.00747272568725)  rotate(0 20.395166934863497 15.118004671651102)" opacity="1" d="M13.15,15.84C13.55,15.6 13.92,15.32 14.27,15.02L40.79,30.24L39.64,14.62L14.64,2.56C11.84,-0.25 7.49,-0.81 4.07,1.19C0.1,3.57 -1.19,8.72 1.2,12.69C1.23,12.75 1.27,12.81 1.31,12.87C3.79,16.9 9.05,18.22 13.15,15.84Z " /><path id="路径 56" fill-rule="evenodd" style="fill:#1E378B" transform="translate(-255.68941398554108 -113.63312354627135)  rotate(0 22.30613606940494 35.85702899634489)" opacity="1" d="M44.4,57.3L35.04,10.57C34.34,6.85 32.06,3.63 28.79,1.74C25.52,-0.15 21.58,-0.52 18.02,0.73C11.87,2.89 8.46,9.45 10.22,15.73L20.01,48.89L5.01,41.9L0,54.13L4.69,56.99L25.74,69.82C31.55,73.46 39.21,71.7 42.84,65.88L42.85,65.87C44.41,63.31 44.96,60.25 44.4,57.3Z " /><path id="路径 57" fill-rule="evenodd" style="fill:#2F2E41" transform="translate(-281.20182451032093 -44.26091104694848)  rotate(0 56.067411204705174 59.58582249816448)" opacity="1" d="M60.52,20.44L40.38,17.83L23.97,15.71L19.26,15.1C15.13,14.56 10.96,15.7 7.68,18.26C4.26,20.92 2.05,24.83 1.54,29.13C1.48,29.6 1.44,30.07 1.42,30.54L0,83.62L0,83.68L0.66,85L16.27,119.17L34.8,115.41L24.66,88.54L24.88,88.21C26.69,85.43 27.1,81.96 25.97,78.83L27.04,75.73C29.26,69.31 28.21,66.23 26.88,62.34C25.68,59.18 24.98,55.85 24.8,52.47L24.57,48.08C30.16,49.06 35.37,50.15 40.38,51.24C42.06,51.61 43.72,51.97 45.36,52.34C50.04,53.39 54.55,54.39 58.98,55.23C67.93,56.93 76.51,57.97 85.33,57.33C85.5,57.32 85.68,57.3 85.85,57.28C87.99,57.11 90.15,56.83 92.33,56.45C93.56,56.22 94.79,55.97 96.03,55.68C96.38,55.59 96.73,55.5 97.07,55.42C98.03,55.17 98.95,54.8 99.82,54.32C101.05,53.63 102.2,52.8 103.24,51.84C103.25,51.83 103.25,51.83 103.25,51.83C104.95,49.41 106.61,46.96 108.22,44.47C109.09,43.14 109.95,41.79 110.8,40.43C112.03,37.05 112.5,33.64 111.83,30.84C111.82,30.82 111.81,30.75 111.79,30.65L111.77,30.58C111.73,30.36 111.68,30.11 111.62,29.84C110.37,23.6 108.75,17.44 106.79,11.38C105.62,7.67 104.08,4.1 102.19,0.7C102.12,0.59 102.06,0.48 101.99,0.37L101.76,0L99.85,0.7L99.77,0.73L70.64,11.4L62.22,14.49L61.96,14.59L60.52,20.44Z " /><path id="路径 58" fill-rule="evenodd" style="fill:#2F2E41" transform="translate(-309.7686084070503 -52.57637771702059)  rotate(0 70.52611027848259 55.727328652673144)" opacity="1" d="M85.5,15.58L84.92,20.35L84.87,20.35L68.95,18.28L52.54,16.16L43.72,15.02C39.59,14.48 35.42,15.62 32.15,18.18C28.72,20.84 26.51,24.75 26,29.05C25.95,29.48 25.91,29.92 25.89,30.36L17.58,50.07C12.6,61.85 9.43,74.32 8.18,87.05L0,109.7L16.53,111.45L26.8,97.17C27.65,95.92 28.47,94.64 29.23,93.32C30.47,91.17 31.58,88.93 32.55,86.64L48.8,47.96C50.06,48.17 51.31,48.38 52.54,48.57C58.24,49.5 63.71,50.25 68.95,50.84C86,52.74 100.76,52.89 113.9,51.27C117.59,50.82 121.15,50.23 124.6,49.5C125.86,49.23 127.11,48.95 128.34,48.64C128.63,48.57 128.91,48.51 129.19,48.43C134.37,47.1 138.51,43.23 140.19,38.16C141.18,35.27 141.32,32.15 140.6,29.18C140.51,28.79 140.39,28.39 140.27,28C139.29,25.06 138.15,22.18 136.85,19.37C135.4,16.16 133.65,12.73 131.58,9.02C130.57,7.22 129.49,5.35 128.34,3.41C127.76,2.43 127.16,1.44 126.53,0.43C126.51,0.38 126.48,0.34 126.45,0.3L126.27,0L97.45,3.86L86.72,5.29L86.08,10.64L85.93,11.96C85.92,11.96 85.92,11.96 85.93,11.97L85.5,15.58L85.5,15.58Z " /><path id="路径 59" fill-rule="evenodd" style="fill:#FFB6B6" transform="translate(-250.38871121533396 -180.47959258637817)  rotate(0 19.93484297846953 20.375723986030504)" opacity="1" d="M19.93,0C8.93,0 0,9.12 0,20.38C0,31.63 8.93,40.75 19.93,40.75C30.94,40.75 39.87,31.63 39.87,20.38C39.87,9.12 30.94,0 19.93,0Z " /><path id="路径 60" fill-rule="evenodd" style="fill:#1E378B" transform="translate(-255.3723732786985 -137.23706488059017)  rotate(0 36.13927670181622 52.86018042819321)" opacity="1" d="M13.42,69.57L14.93,71.94L23,90.56L27.11,90.43L27.68,94.52L27.82,95.48L30.48,105.01L30.68,105.72L34.32,103.99L56.04,93.68L72.28,85.97L72.25,85.78C72.22,85.55 72.19,85.32 72.14,85.09C71.66,82.59 70.43,80.14 69.24,77.76C68.11,75.5 67.03,73.35 66.59,71.22C66.15,69.12 66.41,67.01 66.66,64.98C66.93,62.78 67.21,60.5 66.58,58.29C63.36,46.99 58.94,36.08 53.4,25.73C50.54,16.43 42.5,9.67 32.85,8.44C33.4,7.41 33.63,6.24 33.51,5.08C33.35,3.56 32.6,2.17 31.41,1.22C30.27,0.3 28.81,-0.13 27.35,0.03L18.08,1.07C14.99,1.46 12.79,4.27 13.15,7.36C13.2,7.82 13.3,8.27 13.46,8.71C4.86,19.66 0.44,29.64 0.03,39.07L0.03,39.08C-0.02,40.17 -0.01,41.26 0.05,42.35C0.25,45.87 1.01,49.34 2.32,52.62C3.86,56.4 5.93,59.96 8.45,63.17C8.97,63.82 9.51,64.46 10.06,65.09C10.58,65.71 11.16,66.35 11.8,67.03L13.42,69.57Z " /><path id="路径 61" fill-rule="evenodd" style="fill:#000000" transform="translate(-252.81004126019917 -110.96813890279003)  rotate(0 16.827927463573047 22.78241844477331)" opacity="0.2" d="M7.7,38.65C8.26,39.31 8.84,39.96 9.46,40.62L12.61,45.56C24.24,36.85 33.66,2.55 33.66,2.55L20.54,0L0,26.25C1.85,30.79 4.46,34.98 7.7,38.65Z " /><path id="路径 62" fill-rule="evenodd" style="fill:#FFB6B6" transform="translate(-277.2627005826178 -142.05785591670892)  rotate(0 8.851642084746466 23.628129801377458)" opacity="1" d="M16.4,4.04C14.01,0.08 8.86,-1.18 4.91,1.21C1.54,3.29 -0.01,7.39 1.15,11.19L0,38.93L13.23,47.26L12.31,16.7C12.74,16.53 13.15,16.33 13.55,16.09C17.59,13.59 18.9,8.33 16.51,4.23C16.47,4.17 16.44,4.1 16.4,4.04Z " /><path id="路径 63" fill-rule="evenodd" style="fill:#1E378B" transform="translate(-277.4189710686024 -120.45572596857335)  rotate(0 29.820686587241404 29.307472509444995)" opacity="1" d="M0 16.19L14.55 14.12L15.19 30.23L37.87 4.13C38.18 3.79 38.5 3.47 38.84 3.17C38.93 3.08 39.03 3 39.13 2.92C44.34 -1.49 52.14 -0.83 56.54 4.38C61.02 9.65 60.6 17.51 55.58 22.27L21.22 55.31C17.31 59.01 11.43 59.68 6.79 56.95C3.03 54.71 0.7 50.69 0.63 46.32L0 16.19Z" /><path id="路径 65" fill-rule="evenodd" style="fill:#2F2E41" transform="translate(-337.97344414572416 74.95717498081854)  rotate(0 16.902814871918437 13.230821612217229)" opacity="1" d="M17.85,22.56L22.77,18.13L21.56,24.08L27.4,26.46L33.81,6.09L31.6,5.03L22.53,0.68L21.1,0L18.83,5.58L2.96,9.07C1.35,9.43 0.16,10.79 0.01,12.43C-0.13,14.07 0.82,15.61 2.34,16.24L17.85,22.56Z " /><path id="路径 65" fill-rule="evenodd" style="fill:#2F2E41" transform="translate(-274.46099457116134 90.57198447930654)  rotate(-24.91960934947773 16.90281487191848 13.23082161221723)" opacity="1" d="M31.6,5.03L22.53,0.68L21.1,0L18.83,5.58L2.96,9.07C1.35,9.43 0.16,10.79 0.01,12.43C-0.13,14.07 0.82,15.61 2.34,16.24L17.85,22.56L22.77,18.13L21.56,24.08L27.4,26.46L33.81,6.09L31.6,5.03Z " /><path id="路径 66" fill-rule="evenodd" style="fill:#2F2E41" transform="translate(-254.68831990094236 -190.24467086096644)  rotate(0 49.74048504902302 26.231959203876322)" opacity="1" d="M50.37,23.74C54.18,22.43 64.85,25.17 68.08,27.66C71.31,30.14 73.9,33.42 77.01,36.06C80.12,38.7 84.08,40.74 88.03,40.02C91.19,39.45 93.89,37.15 95.7,34.38C97.51,31.61 98.55,28.38 99.48,25.17C92.49,29.21 82.91,27.52 77.58,21.3C74.19,17.35 72.58,12.11 69.87,7.62C67.16,3.14 62.45,-0.88 57.47,0.17C54.03,0.89 51.38,3.92 50.04,7.29C48.69,10.67 48.44,14.39 48.21,18.04C48.29,10.54 43.35,3.28 36.55,0.88C29.74,-1.51 21.6,1.16 17.32,7.18C13.46,3.6 7.53,3.48 3.52,6.89C-0.3,10.31 -1.15,16.82 1.66,21.18C4.48,25.54 10.57,27.16 15.04,24.74L16.62,26.2C15.73,29.31 17.45,32.98 20.35,34.15C22.7,35.1 26.02,34.94 26.9,37.41C27.52,39.13 26.37,40.97 25.15,42.3C23.92,43.62 22.47,44.99 22.33,46.82C22.1,49.59 24.96,51.53 27.56,52.11C33.83,53.52 40.78,50.62 44.39,45.09C44.46,44.98 44.54,44.87 44.62,44.77C48.71,39.53 50.47,32.84 49.49,26.27C49.28,24.99 49.49,24.04 50.37,23.74Z " /></g><g opacity="1" transform="translate(311.5227662578926 0)  rotate(0 214.50125860938576 355.45443608925206)"><path id="路径 68" fill-rule="evenodd" style="fill:#999999" transform="translate(-318.41252302025777 43.63478327194912)  rotate(0 64.27026309745585 87.88653735388604)" opacity="1" d="M9.86,17.83L118.72,17.83C120.17,17.84 121.34,20.52 121.34,23.82L121.72,175.77L128.49,175.77L128.54,16.05C128.54,15 128.5,13.95 128.4,12.91C127.83,6.41 125.56,1.39 122.7,0.24C122.32,0.08 121.91,0 121.5,0L7.08,0C3.65,0.01 0.73,5.63 0.14,13.32C0.07,14.22 0.04,15.14 0.04,16.05L0,175.77L7.26,175.77L7.23,23.82C7.23,20.52 8.41,17.84 9.86,17.83Z " /><path id="路径 76" fill-rule="evenodd" style="fill:#3F3D56" transform="translate(-296.5010008207941 -13.671231314768306)  rotate(0 7.491323462803511 28.533116831598768)" opacity="1" d="M14.23 9.69L14.23 9.7L14.98 20.69L7.85 52.07L3.29 57.07L0 57.07L13.56 0L14.23 9.69Z" /><path id="路径 77" fill-rule="evenodd" style="fill:#3F3D56" transform="translate(-305.4192135924436 38.765027851403374)  rotate(0 29.96531741525977 4.330199065823459)" opacity="1" d="M12.67,0.04L10.02,0.02L6.93,0L6.91,0C6.46,0 6.03,0.18 5.71,0.49L0.5,5.7C0.38,5.82 0.29,5.95 0.22,6.1C0.19,6.14 0.16,6.19 0.14,6.23C-0.09,6.77 -0.04,7.38 0.28,7.86C0.59,8.35 1.13,8.65 1.71,8.66L55.93,8.66C56.59,8.66 57.19,8.27 57.48,7.67L57.9,6.75L58.78,4.87L59.77,2.75C59.88,2.53 59.93,2.28 59.93,2.03C59.93,1.1 59.17,0.34 58.24,0.33L16.38,0.06L12.67,0.04Z " /><path id="路径 78" fill-rule="evenodd" style="fill:#000000" transform="translate(-305.4187318129457 44.865342075890965)  rotate(0 28.95160278295748 1.280426928603206)" opacity="0.17" d="M0.22,0C0.19,0.04 0.16,0.09 0.14,0.14C-0.09,0.67 -0.04,1.28 0.28,1.77C0.59,2.25 1.13,2.55 1.71,2.56L55.93,2.56C56.59,2.56 57.19,2.17 57.48,1.58L57.9,0.65L0.22,0Z " /><path id="路径 79" fill-rule="evenodd" style="fill:#000000" transform="translate(-296.5010008207941 -13.671231314768306)  rotate(0 7.113060912954729 28.533116831598768)" opacity="0.17" d="M0 57.07L13.56 0L14.23 9.69L14.23 9.7L2.62 57.07L0 57.07Z" /><path id="路径 80" fill-rule="evenodd" style="fill:#3F3D56" transform="translate(-302.03946513606076 -136.7674230906572)  rotate(0 17.012325359179783 82.63735309787829)" opacity="1" d="M16.9 15.3C17.27 15.59 17.52 16.02 17.58 16.49L34.01 141.47C34.07 141.92 33.96 142.37 33.69 142.73L26.25 163.24L26.03 163.56L25.55 164.25C25.3 164.6 24.94 164.84 24.53 164.95L23.45 165.22C22.96 165.35 22.43 165.25 22.01 164.96C21.59 164.68 21.31 164.23 21.24 163.72L19.32 149.08L19.32 149.07L18.08 139.67L17.04 131.74L0.01 2.24C-0.11 1.26 0.58 0.37 1.55 0.24L3.26 0.01C3.72 -0.05 4.2 0.08 4.57 0.37L5.59 1.15L16.9 15.3Z" /><path id="路径 81" fill-rule="evenodd" style="fill:#000000" transform="translate(-302.0373339890416 -136.76758102249084)  rotate(0 13.12639058119122 82.63629211037912)" opacity="0.17" d="M24.53,164.95C24.94,164.84 25.3,164.59 25.55,164.25L26.03,163.56L26.25,163.25L5.59,1.15L4.57,0.37C4.2,0.08 3.72,-0.05 3.26,0.02L1.55,0.24C0.57,0.37 -0.11,1.26 0.02,2.24L21.24,163.72C21.31,164.22 21.59,164.68 22.01,164.96C22.43,165.25 22.95,165.34 23.45,165.22L24.53,164.95Z " /><path id="路径 82" fill-rule="evenodd" style="fill:#FFFFFF" transform="translate(-295.8430457666597 -130.98328435635256)  rotate(0 12.001827141497275 64.42048853466252)" opacity="1" d="M24 114.82L16.94 128.84L0 0L10.97 15.65L24 114.82Z" /><path id="路径 82" fill-rule="evenodd" style="fill:#1E378B" transform="translate(-295.8430457666597 -130.98328435635256)  rotate(0 12.001827141497275 64.42048853466252)" opacity="0.07" d="M24 114.82L16.94 128.84L0 0L10.97 15.65L24 114.82Z" /><path id="路径 38" fill-rule="evenodd" style="fill:#3F3D56" transform="translate(-130.71248618784523 7.043534596170389)  rotate(0 13.598125859581819 64.09684472892909)" opacity="1" d="M19.09 0.64C23.93 2.29 27.19 6.83 27.19 11.94L27.2 128.19L5.41 127.94L0 127.94L0 11.94C0.01 6.72 3.4 2.1 8.38 0.54C9.54 0.18 10.73 0 11.94 0L15.25 0C16.56 0 17.86 0.21 19.09 0.64Z" /><path id="路径 37" fill-rule="evenodd" style="fill:#3F3D56" transform="translate(-183.03212367385066 107.38296990414017)  rotate(0 33.996724820350764 13.927251340021758)" opacity="1" d="M0,8.09L0,19.74C0.01,24.21 3.63,27.83 8.1,27.84L67.99,27.85L53.47,0L8.1,0C3.63,0.01 0.01,3.63 0,8.09Z " /><path id="路径 84" fill-rule="evenodd" style="fill:#3F3D56" transform="translate(-185.21915533011395 63.61284953002598)  rotate(0 27.467172885078227 35.3160688115636)" opacity="1" d="M5.35,0C3.91,0 2.53,0.58 1.52,1.61C1.14,2 0.82,2.45 0.57,2.94C0.57,2.94 0.57,2.94 0.57,2.95C0.01,4.06 -0.15,5.34 0.14,6.56L0.14,6.57C0.54,8.27 1.74,9.66 3.36,10.31C3.99,10.57 4.67,10.7 5.35,10.7L28.54,10.7L28.54,65.98C28.53,67.91 29.57,69.69 31.25,70.63C33.83,67.64 36.34,64.6 38.77,61.49C38.93,61.28 39.09,61.08 39.24,60.88L39.24,10.7L49.59,10.7C49.72,10.7 49.86,10.69 50,10.68C50.51,10.64 51.02,10.53 51.5,10.35C53.57,9.55 54.93,7.56 54.93,5.35L54.93,5.34C54.93,2.39 52.54,0 49.59,0L5.35,0Z " /><path id="路径 85" fill-rule="evenodd" style="fill:#3F3D56" transform="translate(-136.88383057090232 -34.11478183384986)  rotate(0 12.128566657899183 30.31637657749777)" opacity="1" d="M4.91,4.91C1.77,8.05 0,12.32 0,16.76C0,24.78 5.68,31.68 13.56,33.22L13.56,60.63L24.26,60.63L24.26,0L16.77,0C12.32,0 8.05,1.77 4.91,4.91Z " /></g></g><g opacity="1" transform="translate(234.43093922651943 -2.842170943040401e-14)  rotate(0 54.399436930992806 54.41951710261569)"><path id="路径 10" fill-rule="evenodd" style="fill:#1E378B" transform="translate(0 0)  rotate(0 54.399436930992806 54.41951710261569)" opacity="1" d="M54.4,0C24.36,0 0,24.36 0,54.42C0,84.47 24.36,108.84 54.4,108.84C84.44,108.84 108.8,84.47 108.8,54.42C108.8,24.36 84.44,0 54.4,0Z " /><path id="分组 1" fill-rule="evenodd" style="fill:#FFFFFF" transform="translate(28.753969354044386 44.70175014705062)  rotate(0 25.645008087158203 16.71500015258789)" opacity="1" d="M51.29 30.32L51.29 3.11C51.29 1.39 49.9 -1.87832e-07 48.18 -1.87832e-07L3.11001 -1.87832e-07C1.39001 -1.87832e-07 1.46201e-05 1.39 1.46201e-05 3.11L1.46201e-05 30.32C1.46201e-05 32.04 1.39001 33.43 3.11001 33.43L48.18 33.43C49.9 33.43 51.29 32.04 51.29 30.32Z M3.10854 30.3197L48.1885 30.3197L48.1785 3.10969L3.10854 3.10969L3.10854 30.3197Z " /><path id="分组 2" fill-rule="evenodd" style="fill:#FFFFFF" transform="translate(40.4109842181544 19.824252030070625)  rotate(0 13.990001678466797 13.994999885559082)" opacity="1" d="M27.98 15.55C27.98 6.54 22.09 -2.4343e-08 13.99 -2.4343e-08C5.88 -2.4343e-08 3.37464e-06 6.54 3.37464e-06 15.55L3.37464e-06 27.99L27.98 27.99L27.98 15.55Z M24.8686 24.8797L24.8686 15.5497C24.8686 8.22969 20.3986 3.10969 13.9886 3.10969C7.57856 3.10969 3.10856 8.22969 3.10856 15.5497L3.10856 24.8797L24.8686 24.8797Z " /><path id="路径 15" fill-rule="evenodd" style="fill:#FFFFFF" transform="translate(51.29089888303906 57.529202588502926)  rotate(0 3.108538047953702 3.109685485887268)" opacity="1" d="M3.11,0C1.39,0 0,1.39 0,3.11C0,4.83 1.39,6.22 3.11,6.22C4.83,6.22 6.22,4.83 6.22,3.11C6.22,1.39 4.83,0 3.11,0Z " /></g></g></g></svg>